<mxfile host="app.diagrams.net" agent="Mozilla/5.0 (Macintosh; Intel Mac OS X 10_15_7) AppleWebKit/537.36 (KHTML, like Gecko) Chrome/134.0.0.0 Safari/537.36" version="26.1.1">
  <diagram name="Page-1" id="x6WCMQ3A-0UnCoul7Sup">
    <mxGraphModel dx="1288" dy="1750" grid="1" gridSize="10" guides="1" tooltips="1" connect="1" arrows="1" fold="1" page="1" pageScale="1" pageWidth="1169" pageHeight="827" math="0" shadow="0">
      <root>
        <mxCell id="0" />
        <mxCell id="1" parent="0" />
        <mxCell id="DG9RBlHQnsFQE6wTLfxC-10" value="1:1" style="edgeStyle=orthogonalEdgeStyle;rounded=0;orthogonalLoop=1;jettySize=auto;html=1;entryX=0.5;entryY=1;entryDx=0;entryDy=0;" edge="1" parent="1" source="znOTe2cEVeG6_46OxFQ5-1" target="znOTe2cEVeG6_46OxFQ5-2">
          <mxGeometry relative="1" as="geometry" />
        </mxCell>
        <mxCell id="DG9RBlHQnsFQE6wTLfxC-11" value="1:1" style="edgeStyle=orthogonalEdgeStyle;rounded=0;orthogonalLoop=1;jettySize=auto;html=1;entryX=0;entryY=0.5;entryDx=0;entryDy=0;" edge="1" parent="1" source="znOTe2cEVeG6_46OxFQ5-1" target="znOTe2cEVeG6_46OxFQ5-3">
          <mxGeometry relative="1" as="geometry">
            <Array as="points">
              <mxPoint x="509.99000000000007" y="640" />
              <mxPoint x="509.99000000000007" y="240" />
            </Array>
          </mxGeometry>
        </mxCell>
        <mxCell id="znOTe2cEVeG6_46OxFQ5-1" value="&lt;b&gt;&lt;font style=&quot;font-size: 20px;&quot;&gt;KALIARTI&lt;/font&gt;&lt;/b&gt;" style="rounded=0;whiteSpace=wrap;html=1;" parent="1" vertex="1">
          <mxGeometry x="609.9900000000001" y="580" width="160" height="120" as="geometry" />
        </mxCell>
        <mxCell id="znOTe2cEVeG6_46OxFQ5-2" value="&lt;b&gt;&lt;font style=&quot;font-size: 20px;&quot;&gt;KALITEXT&lt;/font&gt;&lt;/b&gt;" style="rounded=0;whiteSpace=wrap;html=1;align=center;" parent="1" vertex="1">
          <mxGeometry x="609.9900000000001" y="380" width="160" height="120" as="geometry" />
        </mxCell>
        <mxCell id="DG9RBlHQnsFQE6wTLfxC-13" style="rounded=0;orthogonalLoop=1;jettySize=auto;html=1;entryX=0;entryY=0;entryDx=0;entryDy=0;" edge="1" parent="1" source="znOTe2cEVeG6_46OxFQ5-3" target="znOTe2cEVeG6_46OxFQ5-2">
          <mxGeometry relative="1" as="geometry" />
        </mxCell>
        <mxCell id="DG9RBlHQnsFQE6wTLfxC-14" style="rounded=0;orthogonalLoop=1;jettySize=auto;html=1;entryX=0.25;entryY=0;entryDx=0;entryDy=0;" edge="1" parent="1" source="znOTe2cEVeG6_46OxFQ5-3" target="znOTe2cEVeG6_46OxFQ5-2">
          <mxGeometry relative="1" as="geometry" />
        </mxCell>
        <mxCell id="DG9RBlHQnsFQE6wTLfxC-15" value="1:M" style="edgeStyle=orthogonalEdgeStyle;rounded=0;orthogonalLoop=1;jettySize=auto;html=1;entryX=0.5;entryY=0;entryDx=0;entryDy=0;" edge="1" parent="1" source="znOTe2cEVeG6_46OxFQ5-3" target="znOTe2cEVeG6_46OxFQ5-2">
          <mxGeometry relative="1" as="geometry" />
        </mxCell>
        <mxCell id="DG9RBlHQnsFQE6wTLfxC-16" style="rounded=0;orthogonalLoop=1;jettySize=auto;html=1;entryX=0.75;entryY=0;entryDx=0;entryDy=0;" edge="1" parent="1" source="znOTe2cEVeG6_46OxFQ5-3" target="znOTe2cEVeG6_46OxFQ5-2">
          <mxGeometry relative="1" as="geometry" />
        </mxCell>
        <mxCell id="DG9RBlHQnsFQE6wTLfxC-17" style="rounded=0;orthogonalLoop=1;jettySize=auto;html=1;entryX=1;entryY=0;entryDx=0;entryDy=0;" edge="1" parent="1" source="znOTe2cEVeG6_46OxFQ5-3" target="znOTe2cEVeG6_46OxFQ5-2">
          <mxGeometry relative="1" as="geometry" />
        </mxCell>
        <mxCell id="znOTe2cEVeG6_46OxFQ5-3" value="&lt;b&gt;&lt;font style=&quot;font-size: 20px;&quot;&gt;KALICONT&lt;/font&gt;&lt;/b&gt;&lt;div&gt;(IDCC)&lt;/div&gt;" style="rounded=0;whiteSpace=wrap;html=1;" parent="1" vertex="1">
          <mxGeometry x="609.9900000000001" y="180" width="160" height="120" as="geometry" />
        </mxCell>
        <mxCell id="DG9RBlHQnsFQE6wTLfxC-20" value="Convention Collective" style="text;html=1;align=center;verticalAlign=middle;whiteSpace=wrap;rounded=0;fontSize=20;fontStyle=5" vertex="1" parent="1">
          <mxGeometry x="860.08" y="210" width="230" height="60" as="geometry" />
        </mxCell>
        <mxCell id="DG9RBlHQnsFQE6wTLfxC-21" value="Article" style="text;html=1;align=center;verticalAlign=middle;whiteSpace=wrap;rounded=0;fontSize=20;fontStyle=5" vertex="1" parent="1">
          <mxGeometry x="860.08" y="610" width="230" height="60" as="geometry" />
        </mxCell>
        <mxCell id="DG9RBlHQnsFQE6wTLfxC-22" value="Textes associés" style="text;html=1;align=center;verticalAlign=middle;whiteSpace=wrap;rounded=0;fontSize=20;fontStyle=5" vertex="1" parent="1">
          <mxGeometry x="860.08" y="380" width="230" height="60" as="geometry" />
        </mxCell>
        <mxCell id="DG9RBlHQnsFQE6wTLfxC-23" value="KALI Structure : Hierarchical Organization" style="text;html=1;align=center;verticalAlign=middle;whiteSpace=wrap;rounded=0;fontSize=30;" vertex="1" parent="1">
          <mxGeometry x="277" y="30" width="615" height="80" as="geometry" />
        </mxCell>
        <mxCell id="DG9RBlHQnsFQE6wTLfxC-26" value="&lt;div style=&quot;text-align: left;&quot;&gt;- Texte de base&lt;/div&gt;&lt;div style=&quot;text-align: left;&quot;&gt;- Textes Attachés&lt;/div&gt;&lt;div style=&quot;text-align: left;&quot;&gt;- Textes Salaires&lt;/div&gt;&lt;div style=&quot;text-align: left;&quot;&gt;- Textes Extensions&lt;/div&gt;" style="text;html=1;align=center;verticalAlign=middle;whiteSpace=wrap;rounded=0;fontSize=14;" vertex="1" parent="1">
          <mxGeometry x="885.08" y="430" width="180" height="70" as="geometry" />
        </mxCell>
        <mxCell id="DG9RBlHQnsFQE6wTLfxC-27" value="&lt;font style=&quot;font-size: 16px;&quot;&gt;- Le composant KALICONT fait référence à plusieurs composants KALITEXT&lt;/font&gt;&lt;div&gt;&lt;font style=&quot;font-size: 16px;&quot;&gt;- Le composant KALITEXT ne fait aucune référence&lt;/font&gt;&lt;/div&gt;&lt;div&gt;&lt;font style=&quot;font-size: 16px;&quot;&gt;- Le composant KALIARTI fait référence à un composant KALICONT et un composant KALITEXT&lt;/font&gt;&lt;/div&gt;&lt;div&gt;&lt;font style=&quot;font-size: 16px;&quot;&gt;&lt;br&gt;&lt;/font&gt;&lt;/div&gt;&lt;div&gt;&lt;font style=&quot;font-size: 16px;&quot;&gt;&lt;br&gt;&lt;/font&gt;&lt;/div&gt;&lt;div&gt;&lt;font style=&quot;font-size: 16px;&quot;&gt;&lt;br&gt;&lt;/font&gt;&lt;/div&gt;&lt;div&gt;&lt;font style=&quot;font-size: 16px;&quot;&gt;NB : On ne peut pas déterminer à partir d&#39;un composant KALIARTI à quel type de composant KALITEXT (Texte de base, Textes Attachés, etc) il fait référence.&amp;nbsp;&lt;/font&gt;&lt;/div&gt;" style="text;html=1;align=left;verticalAlign=middle;whiteSpace=wrap;rounded=0;" vertex="1" parent="1">
          <mxGeometry x="50" y="195" width="370" height="490" as="geometry" />
        </mxCell>
      </root>
    </mxGraphModel>
  </diagram>
</mxfile>
